<svg width="600" height="50" viewBox="0 0 600 50" fill="none" xmlns="http://www.w3.org/2000/svg">
<rect width="600" height="50" rx="10" fill="white" fill-opacity="0.2"/>
<path d="M574.5 27H573.71L573.43 26.73C574.41 25.59 575 24.11 575 22.5C575 18.91 572.09 16 568.5 16C564.91 16 562 18.91 562 22.5C562 26.09 564.91 29 568.5 29C570.11 29 571.59 28.41 572.73 27.43L573 27.71V28.5L578 33.49L579.49 32L574.5 27ZM568.5 27C566.01 27 564 24.99 564 22.5C564 20.01 566.01 18 568.5 18C570.99 18 573 20.01 573 22.5C573 24.99 570.99 27 568.5 27Z" fill="white"/>
</svg>
